<svg xmlns="http://www.w3.org/2000/svg" width="52.665" height="84.887" viewBox="0 0 52.665 84.887">
  <g id="grandmother" transform="translate(-97.175 0)">
    <g id="Grupo_20" data-name="Grupo 20" transform="translate(98.47 1.326)">
      <path id="Caminho_4" data-name="Caminho 4" d="M170.312,37.725C174.271,13.37,160.033,8,149.9,8S125.537,13.37,129.5,37.725Z" transform="translate(-124.867 -8)" fill="#b9c1cb"/>
      <path id="Caminho_5" data-name="Caminho 5" d="M135.373,156.55a5.222,5.222,0,0,0-4.541,2.641c.094.8.207,1.614.344,2.456h4.737v-5.069A5.288,5.288,0,0,0,135.373,156.55Z" transform="translate(-126.547 -131.921)" fill="#a0aab7"/>
      <path id="Caminho_6" data-name="Caminho 6" d="M355.258,161.647c.137-.842.25-1.659.344-2.456a5.222,5.222,0,0,0-4.541-2.641,5.291,5.291,0,0,0-.54.028v5.069Z" transform="translate(-309.813 -131.921)" fill="#a0aab7"/>
      <path id="Caminho_7" data-name="Caminho 7" d="M328.76,225.234a5.229,5.229,0,0,1-5.212,1.938,15.667,15.667,0,0,1-4.731,7.672,6.926,6.926,0,1,0,9.943-9.61Z" transform="translate(-283.365 -189.218)" fill="#b9c1cb"/>
      <path id="Caminho_8" data-name="Caminho 8" d="M324.074,252.42a6.885,6.885,0,0,1-3.676-1.058,15.8,15.8,0,0,1-1.58,1.625,6.928,6.928,0,0,0,12.021-6A6.929,6.929,0,0,1,324.074,252.42Z" transform="translate(-283.366 -207.36)" fill="#a0aab7"/>
      <g id="Grupo_17" data-name="Grupo 17" transform="translate(3.6 27.613)">
        <path id="Caminho_9" data-name="Caminho 9" d="M132.469,180.858v-6.281a5.29,5.29,0,0,0-.54-.028,5.225,5.225,0,1,0,1.065,10.342A15.69,15.69,0,0,1,132.469,180.858Z" transform="translate(-126.703 -174.55)" fill="#e2ae84"/>
        <path id="Caminho_10" data-name="Caminho 10" d="M348.419,174.549a5.29,5.29,0,0,0-.54.028v6.281a15.691,15.691,0,0,1-.525,4.033,5.226,5.226,0,1,0,1.065-10.342Z" transform="translate(-310.771 -174.549)" fill="#e2ae84"/>
      </g>
      <path id="Caminho_11" data-name="Caminho 11" d="M131.928,200.8a5.227,5.227,0,0,1-5.008-3.733,5.228,5.228,0,0,0,6.073,6.608,15.663,15.663,0,0,1-.484-2.908A5.219,5.219,0,0,1,131.928,200.8Z" transform="translate(-123.103 -165.72)" fill="#d7a379"/>
      <path id="Caminho_12" data-name="Caminho 12" d="M348.42,200.8a5.259,5.259,0,0,1-.581-.033,15.667,15.667,0,0,1-.484,2.908,5.226,5.226,0,0,0,6.073-6.608,5.227,5.227,0,0,1-5.008,3.733Z" transform="translate(-307.172 -165.721)" fill="#d7a379"/>
      <path id="Caminho_13" data-name="Caminho 13" d="M177.148,105.034a15.671,15.671,0,0,0,15.671-15.671V80.237c0-5.455-3.655-15.366-15.671-15.366s-15.671,9.91-15.671,15.366v9.127a15.671,15.671,0,0,0,15.671,15.671Z" transform="translate(-152.112 -55.442)" fill="#f0c69e"/>
      <g id="Grupo_18" data-name="Grupo 18" transform="translate(9.366 30.937)">
        <path id="Caminho_14" data-name="Caminho 14" d="M177.15,210.271h0A15.671,15.671,0,0,1,161.479,194.6v2.984a15.671,15.671,0,1,0,31.341,0V194.6a15.671,15.671,0,0,1-15.671,15.671Z" transform="translate(-161.479 -194.6)" fill="#e6ba94"/>
        <path id="Caminho_15" data-name="Caminho 15" d="M255.995,307.12h0Z" transform="translate(-240.324 -288.465)" fill="#e6ba94"/>
      </g>
      <path id="Caminho_16" data-name="Caminho 16" d="M155.062,339.762H104.988V326.428A19.308,19.308,0,0,1,124.3,307.12h11.457a19.308,19.308,0,0,1,19.308,19.308Z" transform="translate(-104.988 -257.528)" fill="#f44336"/>
      <path id="Caminho_17" data-name="Caminho 17" d="M104.988,486h50.074v2.984H104.988Z" transform="translate(-104.988 -406.75)" fill="#bc1408"/>
      <g id="Grupo_19" data-name="Grupo 19" transform="translate(8.076 22.48)">
        <circle id="Elipse_2" data-name="Elipse 2" cx="6.452" cy="6.452" r="6.452" transform="translate(0 13.255) rotate(-76.7)" fill="#fcf5f5"/>
        <circle id="Elipse_3" data-name="Elipse 3" cx="6.452" cy="6.452" r="6.452" transform="translate(17.746 4.942) rotate(-22.514)" fill="#fcf5f5"/>
        <path id="Caminho_18" data-name="Caminho 18" d="M264.012,319.541c4.687-1.394,5.156-6.838,4.767-11.021a19.23,19.23,0,0,0-6.353-1.315c.01.346.135,7.656-6.43,7.656C256,314.861,258.056,321.312,264.012,319.541Z" transform="translate(-239.036 -280.078)" fill="#fcf5f5"/>
        <path id="Caminho_19" data-name="Caminho 19" d="M183.126,319.541c-4.687-1.394-5.156-6.838-4.767-11.021a19.231,19.231,0,0,1,6.353-1.315c-.01.346-.135,7.656,6.43,7.656C191.141,314.861,189.081,321.312,183.126,319.541Z" transform="translate(-174.18 -280.078)" fill="#fcf5f5"/>
      </g>
      <path id="Caminho_20" data-name="Caminho 20" d="M230.066,307.12s.295,7.67-6.43,7.67-6.429-7.67-6.429-7.67Z" transform="translate(-198.6 -257.528)" fill="#e2ae84"/>
    </g>
    <g id="Grupo_21" data-name="Grupo 21" transform="translate(97.175 0)">
      <path id="Caminho_21" data-name="Caminho 21" d="M148.593,381.646a1.246,1.246,0,0,0-1.246,1.246v4.738h-7.419v-9.722a1.246,1.246,0,1,0-2.492,0v9.722H109.577v-9.722a1.246,1.246,0,1,0-2.492,0v9.722H99.667V375.517a17.932,17.932,0,0,1,1.777-7.831,1.246,1.246,0,1,0-2.246-1.079,20.405,20.405,0,0,0-2.023,8.911v13.359a1.246,1.246,0,0,0,1.246,1.246h50.172a1.246,1.246,0,0,0,1.246-1.246v-5.984a1.245,1.245,0,0,0-1.246-1.246Z" transform="translate(-97.175 -305.236)"/>
      <path id="Caminho_22" data-name="Caminho 22" d="M150.18,49.878a17.024,17.024,0,0,0,1.836-1.239,8.182,8.182,0,0,0,11.613-11.457,6.522,6.522,0,0,0-.216-6.441c1.6-10.343.1-18.3-4.443-23.641C153.716.922,145.869,0,141.66,0a25.232,25.232,0,0,0-12.386,3.032,1.246,1.246,0,0,0,1.238,2.163,22.747,22.747,0,0,1,11.148-2.7c3.779,0,10.807.808,15.413,6.223,3.8,4.468,5.183,11.142,4.126,19.856a6.434,6.434,0,0,0-2.592-.864V26.089a17.9,17.9,0,0,0-3.592-10.5c-2.141-2.8-6.2-6.137-13.355-6.137s-11.214,3.337-13.355,6.137a17.9,17.9,0,0,0-3.592,10.5v1.617a6.432,6.432,0,0,0-2.591.864c-1.115-9.175.474-16.077,4.737-20.533a1.246,1.246,0,1,0-1.8-1.722c-5.1,5.33-6.83,13.548-5.151,24.426a6.477,6.477,0,0,0,5.51,9.889c.059,0,.117,0,.175,0a17.035,17.035,0,0,0,7.546,9.252A20.576,20.576,0,0,0,120.265,56.9a1.246,1.246,0,1,0,1.894,1.62,18.122,18.122,0,0,1,5.341-4.265,15.879,15.879,0,0,0,.646,4.956,7.581,7.581,0,0,0,5.128,5.29,8.29,8.29,0,0,0,2.368.365,6.865,6.865,0,0,0,5.165-2.4,9.533,9.533,0,0,0,.854-1.1,9.533,9.533,0,0,0,.854,1.1,6.864,6.864,0,0,0,5.164,2.4,8.283,8.283,0,0,0,2.368-.365,7.582,7.582,0,0,0,5.128-5.29,15.872,15.872,0,0,0,.646-4.952A18.117,18.117,0,0,1,165.5,70.282v2.392a1.246,1.246,0,1,0,2.492,0V70.282a20.623,20.623,0,0,0-17.812-20.4Zm-8.521,7.5a4.607,4.607,0,0,1-3.494-1.307,6.913,6.913,0,0,1-1.625-3.886h10.242c-.03.238-.071.5-.129.778a6.385,6.385,0,0,1-1.5,3.109A4.607,4.607,0,0,1,141.659,57.374Zm15.7-9.236a5.685,5.685,0,0,1-3.472-1.185,16.969,16.969,0,0,0,3.838-6.328c.059,0,.118,0,.176,0a6.452,6.452,0,0,0,4.108-1.472,5.692,5.692,0,0,1-4.65,8.98Zm4.531-13.99a4,4,0,0,1-3.532,3.963,16.991,16.991,0,0,0,.246-2.878V30.222a4,4,0,0,1,3.286,3.926ZM130.284,17.1c2.617-3.423,6.445-5.159,11.376-5.159s8.758,1.736,11.375,5.159a15.554,15.554,0,0,1,3.08,8.991v.49a7.7,7.7,0,0,0-12.844,4.406h-3.221A7.7,7.7,0,0,0,127.2,26.58v-.491a15.555,15.555,0,0,1,3.08-8.991ZM156.1,32.231a5.218,5.218,0,1,1-5.218-5.218A5.224,5.224,0,0,1,156.1,32.231Zm-18.437,0a5.218,5.218,0,1,1-5.218-5.218A5.224,5.224,0,0,1,137.66,32.231Zm-16.233,1.918a4,4,0,0,1,3.285-3.926v5.011a16.97,16.97,0,0,0,.246,2.877A4,4,0,0,1,121.427,34.148Zm6.071,3.993a7.7,7.7,0,0,0,12.551-4.665h3.221a7.7,7.7,0,0,0,12.55,4.666,14.457,14.457,0,0,1-28.322,0Zm11.413,22.7a4.453,4.453,0,0,1-4.928,1.27c-3.6-1.07-4.177-5.3-3.951-8.95a18.077,18.077,0,0,1,4.007-.886,9.453,9.453,0,0,0,2.341,5.525,6.618,6.618,0,0,0,3.4,1.869A7.278,7.278,0,0,1,138.911,60.845Zm10.424,1.27a4.454,4.454,0,0,1-4.928-1.27,7.262,7.262,0,0,1-.873-1.172,6.62,6.62,0,0,0,3.4-1.868,9.457,9.457,0,0,0,2.342-5.527,17.966,17.966,0,0,1,4.007.886c.225,3.653-.354,7.881-3.951,8.951Z" transform="translate(-115.327 0)"/>
      <path id="Caminho_23" data-name="Caminho 23" d="M203.841,181.9a1.246,1.246,0,0,0,1.246-1.246v-3.52a1.246,1.246,0,1,0-2.492,0v3.52A1.246,1.246,0,0,0,203.841,181.9Z" transform="translate(-185.117 -146.731)"/>
      <path id="Caminho_24" data-name="Caminho 24" d="M295.621,175.893a1.246,1.246,0,0,0-1.246,1.246v3.52a1.246,1.246,0,0,0,2.492,0v-3.52A1.246,1.246,0,0,0,295.621,175.893Z" transform="translate(-261.68 -146.731)"/>
      <path id="Caminho_25" data-name="Caminho 25" d="M221.37,131.589h9.4a1.246,1.246,0,1,0,0-2.492h-9.4a1.246,1.246,0,1,0,0,2.492Z" transform="translate(-199.74 -107.693)"/>
      <path id="Caminho_26" data-name="Caminho 26" d="M233.893,102.973h5.252a1.246,1.246,0,0,0,0-2.492h-5.252a1.246,1.246,0,1,0,0,2.492Z" transform="translate(-210.187 -83.822)"/>
      <path id="Caminho_27" data-name="Caminho 27" d="M237.048,236.789a1.246,1.246,0,1,0-2.3-.949c0,.01-.483,1.051-2.279,1.051s-2.275-1.041-2.279-1.051a1.246,1.246,0,1,0-2.3.949,5.346,5.346,0,0,0,9.167,0Z" transform="translate(-206.132 -196.095)"/>
    </g>
  </g>
</svg>
